:SAMPLES-PER-SECOND 24
:FULLY-SPECIFIED
:DEGREES
819
root  -4.7819 36.1596 51.9294 1.88345 6.81097 8.89319
RightUpLeg  -40.2585 -26.2028 -13.5576
RightLeg  41.4659 14.9064 13.4493
RightFoot  7.7097 -0.507369 3.34032
RightToes  -1.46215e-006 3.27826e-006 1.63871e-007
Spine  3.37736 -2.66693 -6.4443
Spine1  7.41889 -2.98715 0.505209
HEad  -9.26249 -0.949924 -5.53648
LeftShoulder1  2.07756 -3.44622 -23.6379
LeftArm  10.698 -45.7668 -45.4289
LeftForeArm  -17.9164 -71.3006 -40.1228
LeftHand  0.256883 7.02377 18.9234
RightShoulder  2.91317 5.75258 25.4179
RightArm  20.7969 -14.3067 23.8468
RightForeArm  145.069 56.7572 162.787
RightHand  -0.709189 -3.23634 -37.603
LeftUpLeg  3.11684 12.4018 7.17635
LeftLeg  35.154 4.67871 3.88478
LeftFoot  -18.1119 -0.516624 -10.7436
LeftToes  1.24762e-006 1.46925e-008 1.29056e-009
820
root  -4.47143 35.782 52.421 2.96094 4.40042 8.62986
RightUpLeg  -44.2799 -27.6203 -11.5575
RightLeg  45.4489 15.164 15.6349
RightFoot  7.37552 -0.0947844 0.882283
RightToes  -1.46215e-006 3.27826e-006 1.63871e-007
Spine  2.90088 -0.387578 -2.89696
Spine1  5.59615 0.0209601 -1.66316
HEad  -7.40795 -4.27401 -4.59362
LeftShoulder1  2.59237 -3.91032 -28.9173
LeftArm  12.9632 -30.0506 -39.3738
LeftForeArm  35.5379 -77.7701 -92.7342
LeftHand  0.255951 7.45337 15.3753
RightShoulder  2.46315 5.1047 22.3989
RightArm  12.0651 8.72486 26.8244
RightForeArm  143.421 63.0832 157.916
RightHand  0.706633 -8.02784 -30.4202
LeftUpLeg  10.1155 5.11068 7.5556
LeftLeg  26.0947 0.805648 0.776047
LeftFoot  -19.6119 -1.26646 -18.98
LeftToes  1.24762e-006 1.46925e-008 1.29056e-009
821
root  -4.21196 35.3452 52.6016 4.44394 3.53577 8.58064
RightUpLeg  -48.6907 -29.2089 -9.71985
RightLeg  48.8716 14.636 16.9585
RightFoot  7.37132 0.207524 -0.951947
RightToes  -1.46215e-006 3.27826e-006 1.63871e-007
Spine  2.31875 1.98223 0.874061
Spine1  5.52636 3.58918 -6.24095
HEad  -8.39181 -10.152 -1.11413
LeftShoulder1  2.79532 -4.0842 -30.8254
LeftArm  16.9235 -13.8298 -35.1525
LeftForeArm  78.0144 -74.1247 -131.173
LeftHand  0.0680857 6.63502 8.59022
RightShoulder  2.10985 4.69623 19.3202
RightArm  3.29502 25.9113 27.4917
RightForeArm  146.697 69.6989 151.407
RightHand  1.17083 -10.6942 -25.2497
LeftUpLeg  14.6947 1.9097 7.50062
LeftLeg  16.4167 -4.24948 -0.936472
LeftFoot  -23.949 -2.36256 -22.5266
LeftToes  1.24762e-006 1.46925e-008 1.29056e-009
822
root  -4.01024 34.9677 52.5031 5.90598 4.43063 9.03325
RightUpLeg  -51.5528 -29.7672 -9.8378
RightLeg  50.5592 13.3681 16.4858
RightFoot  7.30769 0.145679 -0.579517
RightToes  -1.46215e-006 3.27826e-006 1.63871e-007
Spine  1.80159 4.1114 4.6098
Spine1  7.08659 7.49562 -12.8294
HEad  -12.3172 -17.2069 4.14159
LeftShoulder1  2.80744 -4.16392 -30.5944
LeftArm  20.9411 1.06952 -30.9928
LeftForeArm  85.4783 -72.4264 -137.267
LeftHand  -0.0257874 5.48997 2.48623
RightShoulder  1.84428 4.53385 16.3081
RightArm  -7.86459 38.5768 21.6125
RightForeArm  114.495 79.7688 108.47
RightHand  0.803594 -9.37084 -23.536
LeftUpLeg  15.0774 2.25528 7.10352
LeftLeg  12.5913 -7.1584 -1.08793
LeftFoot  -27.7891 -2.82012 -20.4948
LeftToes  1.24762e-006 1.46925e-008 1.29056e-009
823
root  -3.87747 34.8384 52.1745 6.59503 4.29907 9.12151
RightUpLeg  -52.1599 -26.785 -11.0431
RightLeg  49.66 11.7121 14.079
RightFoot  7.38114 -0.0213694 0.438106
RightToes  -1.46215e-006 3.27826e-006 1.63871e-007
Spine  2.53152 6.08212 7.8512
Spine1  8.45031 11.1639 -18.1778
HEad  -15.8112 -22.8881 8.80704
LeftShoulder1  2.79119 -4.34595 -29.5232
LeftArm  23.4179 15.533 -26.2373
LeftForeArm  75.4235 -73.7202 -131.965
LeftHand  -0.0147229 4.16801 -0.847426
RightShoulder  1.34736 3.64131 11.7724
RightArm  -18.655 57.319 12.2827
RightForeArm  24.7957 48.1224 14.1933
RightHand  -0.476205 -3.06682 -23.6313
LeftUpLeg  12.977 2.1057 6.25976
LeftLeg  14.7699 -4.95408 -0.815857
LeftFoot  -29.4354 -2.95829 -19.5153
LeftToes  1.24762e-006 1.46925e-008 1.29056e-009
824
root  -3.79073 34.9676 51.8262 6.79697 3.88196 8.50314
RightUpLeg  -51.3379 -22.9642 -11.7196
RightLeg  47.008 10.0496 11.0487
RightFoot  8.039 -0.201343 1.50235
RightToes  -1.46215e-006 3.27826e-006 1.63871e-007
Spine  4.03014 7.93633 10.3929
Spine1  9.078 14.2618 -21.2186
HEad  -17.6122 -26.6617 12.7053
LeftShoulder1  2.74711 -4.67358 -27.5145
LeftArm  25.4531 27.6452 -23.5798
LeftForeArm  59.9045 -75.5324 -121.998
LeftHand  0.0751341 2.29913 -3.375
RightShoulder  0.790212 1.99425 6.75021
RightArm  -67.4535 71.7429 -11.895
RightForeArm  32.7568 -5.43008 5.50697
RightHand  -0.653694 -0.609268 -15.8447
LeftUpLeg  10.7721 1.72618 6.41933
LeftLeg  17.5937 -3.91384 -0.919481
LeftFoot  -29.5169 -3.0186 -19.8037
LeftToes  1.24762e-006 1.46925e-008 1.29056e-009
825
root  -3.65104 35.2824 51.6453 7.00046 6.55026 7.87326
RightUpLeg  -49.0827 -23.6731 -12.1415
RightLeg  44.1175 9.43688 9.37982
RightFoot  8.72276 -0.408596 2.64911
RightToes  -1.46215e-006 3.27826e-006 1.63871e-007
Spine  4.06421 8.83702 10.9651
Spine1  10.5433 15.4767 -20.8765
HEad  -18.3064 -29.3695 14.9733
LeftShoulder1  2.78637 -4.97702 -26.7503
LeftArm  27.993 33.7378 -22.4932
LeftForeArm  48.7918 -76.739 -111.807
LeftHand  0.178388 1.21039 -5.23275
RightShoulder  0.566964 1.00228 4.75403
RightArm  -87.5485 72.5617 -29.1602
RightForeArm  30.9233 -6.38003 3.0696
RightHand  -0.214977 -2.55895 -8.91275
LeftUpLeg  9.57271 -0.282699 6.89056
LeftLeg  17.3635 -4.30643 -0.836594
LeftFoot  -28.4749 -2.72878 -19.087
LeftToes  1.24762e-006 1.46925e-008 1.29056e-009
826
root  -3.44205 35.6576 51.4596 7.22195 11.5451 7.62847
RightUpLeg  -45.9081 -27.4472 -13.0515
RightLeg  41.2609 9.3109 8.37942
RightFoot  9.38741 -0.601106 3.63998
RightToes  -1.46215e-006 3.27826e-006 1.63871e-007
Spine  2.92018 8.22492 9.70525
Spine1  12.5118 14.2413 -17.9455
HEad  -17.6766 -31.0762 15.7986
LeftShoulder1  2.83466 -5.09227 -26.8787
LeftArm  29.8968 34.0848 -23.3451
LeftForeArm  36.9063 -77.5767 -98.0018
LeftHand  0.209131 1.16658 -6.00781
RightShoulder  0.555969 0.797702 5.11684
RightArm  -77.2761 70.2512 -25.4789
RightForeArm  26.9558 -6.77753 5.67945
RightHand  -0.238195 -2.5769 -9.45708
LeftUpLeg  8.50579 -2.61026 7.42393
LeftLeg  15.8661 -5.4647 -0.419297
LeftFoot  -26.8443 -2.36792 -18.4388
LeftToes  1.24762e-006 1.46925e-008 1.29056e-009
827
root  -3.25328 35.9518 51.0926 7.68555 15.2538 7.7442
RightUpLeg  -43.1697 -28.3895 -14.7306
RightLeg  37.8033 7.8071 6.19677
RightFoot  10.2313 -0.915915 5.17508
RightToes  -1.46215e-006 3.27826e-006 1.63871e-007
Spine  2.70558 7.12344 8.91032
Spine1  13.0106 12.7223 -16.4453
HEad  -16.3464 -25.547 13.7086
LeftShoulder1  2.78834 -5.18665 -25.9554
LeftArm  30.1631 31.8924 -25.5912
LeftForeArm  21.1285 -77.5765 -81.2844
LeftHand  0.230097 1.32917 -6.88924
RightShoulder  0.52532 0.62783 4.87764
RightArm  -77.2114 70.0159 -25.4155
RightForeArm  29.0659 -6.70273 5.37751
RightHand  -0.208039 -2.75264 -8.6961
LeftUpLeg  6.1996 -4.42121 7.97464
LeftLeg  16.4323 -7.27641 -1.29613
LeftFoot  -25.8275 -2.18625 -18.2827
LeftToes  1.24762e-006 1.46925e-008 1.29056e-009
828
root  -3.06547 36.182 50.6733 8.24353 16.6363 7.88448
RightUpLeg  -40.7028 -25.2725 -16.9908
RightLeg  33.6198 5.24046 3.49783
RightFoot  11.2133 -1.36346 7.21771
RightToes  -1.46215e-006 3.27826e-006 1.63871e-007
Spine  3.45706 6.69659 9.46604
Spine1  12.6242 12.4047 -16.7776
HEad  -16.8467 -6.47561 3.65188
LeftShoulder1  2.81317 -5.3438 -25.6542
LeftArm  30.0929 30.1745 -26.2067
LeftForeArm  12.6194 -77.1442 -72.377
LeftHand  0.296854 1.10328 -8.30494
RightShoulder  0.460047 0.360895 3.95476
RightArm  -81.0928 70.1414 -28.3724
RightForeArm  29.3078 -6.59709 4.75651
RightHand  -0.13834 -3.33769 -7.05535
LeftUpLeg  4.14855 -5.1726 8.00763
LeftLeg  17.3091 -8.63602 -2.29884
LeftFoot  -25.0137 -2.01015 -17.8879
LeftToes  1.24762e-006 1.46925e-008 1.29056e-009
829
root  -2.85694 36.4256 50.3132 8.42773 17.2027 7.69966
RightUpLeg  -37.8435 -19.8116 -19.5005
RightLeg  29.5168 1.25283 0.543185
RightFoot  12.1426 -1.51767 7.70593
RightToes  -1.46215e-006 3.27826e-006 1.63871e-007
Spine  4.29363 6.59889 10.2557
Spine1  12.7585 12.2958 -16.3856
HEad  -24.1737 22.0887 -14.877
LeftShoulder1  2.93068 -5.47047 -26.5496
LeftArm  31.1206 30.0974 -25.4764
LeftForeArm  10.0825 -76.9247 -69.3766
LeftHand  0.366456 0.798075 -9.46982
RightShoulder  0.37003 -0.139082 2.91788
RightArm  -81.8151 69.7383 -30.6365
RightForeArm  27.4165 -6.70092 5.2505
RightHand  -0.150395 -3.35808 -7.81719
LeftUpLeg  3.58689 -5.02545 7.82346
LeftLeg  16.5017 -8.97347 -2.0627
LeftFoot  -23.9574 -1.81958 -17.6351
LeftToes  1.24762e-006 1.46925e-008 1.29056e-009
830
root  -2.7042 36.6 49.98 8.51721 18.5746 7.47973
RightUpLeg  -35.5598 -12.4651 -22.4392
RightLeg  27.522 -4.39414 -2.72382
RightFoot  10.4441 -0.993501 5.48689
RightToes  -1.46215e-006 3.27826e-006 1.63871e-007
Spine  5.20146 6.21886 11.1978
Spine1  12.741 11.9704 -16.2642
HEad  -41.3221 48.0895 -40.8789
LeftShoulder1  2.93224 -5.58305 -26.1493
LeftArm  32.7992 30.4196 -25.7678
LeftForeArm  5.52748 -76.4906 -64.8513
LeftHand  0.402133 0.480003 -9.648
RightShoulder  0.303386 -0.563246 2.15103
RightArm  -83.8045 69.1614 -33.166
RightForeArm  27.6519 -6.66028 5.02191
RightHand  -0.176257 -3.11016 -8.38194
LeftUpLeg  2.62252 -5.85983 7.98242
LeftLeg  16.5116 -9.36523 -2.17318
LeftFoot  -23.5178 -1.73761 -17.4904
LeftToes  1.24762e-006 1.46925e-008 1.29056e-009
